# xmcd
#
# Track frame offsets:
#	150
#	10247
#	21305
#	35768
#	47231
#	62645
#	75516
#	88308
#	113321
#	127542
#
# Disc length: 1884 seconds
#
# Revision: 1
# Processed by: cddbd v1.5.2PL0 Copyright (c) Steve Scherf et al.
# Submitted via: audiograbber 1.83.01
#
DISCID=72075a0a
DTITLE=Ben Vaughn - Texas Road Trip
DYEAR=2014
DGENRE=Country
TTITLE0=boomerang
TTITLE1=miss me when i'm gone
TTITLE2=i'll stand alone
TTITLE3=fire in the hole
TTITLE4=texas rain
TTITLE5=sleepless nights
TTITLE6=she fell out the window
TTITLE7=heavy machinery
TTITLE8=seven days without love
TTITLE9=six by six
EXTD=
EXTT0=
EXTT1=
EXTT2=
EXTT3=
EXTT4=
EXTT5=
EXTT6=
EXTT7=
EXTT8=
EXTT9=
PLAYORDER=
